<svg width="101" height="100" viewBox="0 0 101 100" fill="none" xmlns="http://www.w3.org/2000/svg">
<g id="Icons Accent" clip-path="url(#clip0_2_963)">
<g id="Union">
<path d="M25.0422 40.6642C38.0348 40.6643 48.5676 51.197 48.5676 64.1896C48.5675 77.1821 38.0347 87.7149 25.0422 87.715V76.715C31.9596 76.7149 37.5675 71.1069 37.5676 64.1896C37.5676 57.2721 31.9596 51.6643 25.0422 51.6642C18.1248 51.6642 12.5168 57.2721 12.5168 64.1896H1.51685C1.51685 51.197 12.0496 40.6642 25.0422 40.6642Z" fill="#F8B233"/>
<path d="M76.6448 40.6642C89.6373 40.6643 100.17 51.197 100.17 64.1896H89.1702C89.1702 57.2721 83.5622 51.6643 76.6448 51.6642C69.7273 51.6642 64.1194 57.2721 64.1194 64.1896H53.1194C53.1194 51.197 63.6522 40.6642 76.6448 40.6642Z" fill="#F8B233"/>
<path d="M50.9231 14.8751C63.9156 14.8752 74.4485 25.408 74.4485 38.4005H63.4485C63.4485 31.4831 57.8405 25.8752 50.9231 25.8751C44.0057 25.8753 38.3977 31.4831 38.3977 38.4005H27.3977C27.3977 25.408 37.9306 14.8753 50.9231 14.8751Z" fill="#F8B233"/>
</g>
</g>
<defs>
<clipPath id="clip0_2_963">
<rect width="100" height="100" fill="white" transform="translate(0.923096 0.00012207)"/>
</clipPath>
</defs>
</svg>
