<svg width="100" height="100" viewBox="0 0 100 100" fill="none" xmlns="http://www.w3.org/2000/svg">
<g id="Icons Accent" clip-path="url(#clip0_2_968)">
<g id="Union">
<path d="M92.083 93.5304L83.1904 100.005L63.1875 72.5314L72.0801 66.0568L92.083 93.5304Z" fill="#F8B233"/>
<path d="M22.3096 43.2101C22.3098 53.1924 31.5285 62.2734 44.1885 62.2736C56.8486 62.2736 66.0681 53.1925 66.0684 43.2101H77.0684C77.0681 60.3598 61.7707 73.2736 44.1885 73.2736C26.6064 73.2734 11.3098 60.3597 11.3096 43.2101H22.3096Z" fill="#F8B233"/>
<path d="M44.1895 7.57825C61.7715 7.5784 77.0681 20.4921 77.0684 37.6417H66.0684C66.0681 27.6594 56.8494 18.5784 44.1895 18.5782C31.5295 18.5784 22.3098 27.6594 22.3096 37.6417H11.3096C11.3098 20.492 26.6074 7.57837 44.1895 7.57825Z" fill="#F8B233"/>
</g>
</g>
<defs>
<clipPath id="clip0_2_968">
<rect width="100" height="100" fill="white"/>
</clipPath>
</defs>
</svg>
