<svg width="55" height="16" viewBox="0 0 55 16" fill="none" xmlns="http://www.w3.org/2000/svg">
<path d="M51.9561 8.8775L47.0674 13.5298C46.8675 13.7199 46.5507 13.7117 46.3604 13.5123C46.1701 13.3123 46.178 12.9956 46.3779 12.8052L50.5049 8.8775H51.9561Z" fill="currentColor"/>
<path d="M46.3604 1.82281C46.5269 1.6481 46.7903 1.62052 46.9873 1.74371L47.0674 1.80523L52.8457 7.30621C52.9444 7.40041 53.0008 7.53206 53.001 7.66851C53.0009 7.80511 52.9446 7.93656 52.8457 8.03082L52.7012 8.16851H2.50098C2.22495 8.16851 2.00018 7.9445 2 7.66851C2.00033 7.39265 2.22504 7.16851 2.50098 7.16851H51.25L46.3779 2.52984L46.3115 2.45269C46.1791 2.26191 46.194 1.99764 46.3604 1.82281Z" fill="currentColor"/>
</svg>
