<svg width="26" height="27" viewBox="0 0 26 27" fill="none" xmlns="http://www.w3.org/2000/svg">
<circle cx="13" cy="13.5" r="13" fill="currentColor"/>
<path fill-rule="evenodd" clip-rule="evenodd" d="M18.5176 9.1972C18.5865 9.13097 18.6411 9.05232 18.6784 8.96574C18.7157 8.87917 18.735 8.78637 18.735 8.69264C18.7351 8.59891 18.716 8.50609 18.6788 8.41947C18.6416 8.33286 18.587 8.25414 18.5183 8.18782C18.4495 8.12151 18.3678 8.06889 18.2779 8.03296C18.188 7.99704 18.0916 7.97852 17.9943 7.97847C17.897 7.97841 17.8006 7.99681 17.7106 8.03263C17.6207 8.06844 17.5389 8.12097 17.4701 8.1872L13.6628 11.8535L14.7104 12.8623L18.5176 9.1972ZM8.53169 8.1872L13.0002 12.4915L14.0478 13.5002L18.5176 17.8033C18.6567 17.937 18.7349 18.1185 18.735 18.3078C18.7351 18.4971 18.6572 18.6787 18.5183 18.8127C18.3793 18.9466 18.1909 19.0219 17.9943 19.022C17.7977 19.0221 17.6091 18.947 17.4701 18.8133L13.0002 14.509L11.9527 13.5002L7.48285 9.1972C7.34376 9.06327 7.26562 8.88162 7.26562 8.6922C7.26563 8.50279 7.34376 8.32114 7.48285 8.1872C7.62193 8.05327 7.81057 7.97803 8.00727 7.97803C8.20397 7.97803 8.39261 8.05327 8.53169 8.1872ZM11.2599 14.1672L7.48285 17.8033C7.41398 17.8696 7.35935 17.9483 7.32208 18.035C7.28481 18.1216 7.26562 18.2145 7.26562 18.3083C7.26562 18.4021 7.28481 18.4949 7.32208 18.5816C7.35935 18.6682 7.41398 18.747 7.48285 18.8133C7.62193 18.9472 7.81057 19.0225 8.00727 19.0225C8.10466 19.0225 8.2011 19.004 8.29108 18.9681C8.38107 18.9322 8.46282 18.8796 8.53169 18.8133L12.3077 15.1761L11.2599 14.1672Z" fill="white"/>
</svg>
