<svg width="16" height="16" viewBox="0 0 16 16" fill="none" xmlns="http://www.w3.org/2000/svg">
<path fill-rule="evenodd" clip-rule="evenodd" d="M7.33216 16C7.65992 16 8.16235 15.9111 8.54058 15.7395C10.6299 14.792 13.332 10.3698 13.332 6.80015C13.332 3.20247 10.9814 0 7.33216 0C3.68296 0 1.33203 3.20247 1.33203 6.80015C1.33203 10.3698 4.03417 14.792 6.12348 15.7395C6.50171 15.9111 7.0044 16 7.33216 16ZM8.50028 7.53154C8.19048 7.8316 7.77029 8.00018 7.33216 8.00018C6.89403 8.00018 6.47358 7.8316 6.16378 7.53154C5.85397 7.23147 5.67992 6.8245 5.67992 6.40014C5.67992 5.97579 5.85397 5.56881 6.16378 5.26875C6.47358 4.96868 6.89403 4.80011 7.33216 4.80011C7.77029 4.80011 8.19048 4.96868 8.50028 5.26875C8.81009 5.56881 8.98414 5.97579 8.98414 6.40014C8.98414 6.8245 8.81009 7.23147 8.50028 7.53154Z" fill="currentColor"/>
</svg>
