<svg width="12" height="12" viewBox="0 0 12 12" fill="none" xmlns="http://www.w3.org/2000/svg">
<path d="M1.26591 0.652283L1.70735 0.210844C1.84239 0.0758406 2.02552 0 2.21648 0C2.40743 0 2.59056 0.0758406 2.72561 0.210844L4.58786 2.0731C4.72287 2.20814 4.79871 2.39128 4.79871 2.58223C4.79871 2.77318 4.72287 2.95632 4.58786 3.09136L3.29667 4.38255C3.19173 4.48744 3.12251 4.62273 3.09885 4.7692C3.07519 4.91567 3.0983 5.06587 3.16489 5.19846C3.95209 6.77194 5.22806 8.04791 6.80154 8.83511C6.9342 8.90161 7.08445 8.9246 7.23092 8.90081C7.3774 8.87703 7.51265 8.80767 7.61745 8.70261L8.90864 7.41214C9.04368 7.27713 9.22682 7.20129 9.41777 7.20129C9.60872 7.20129 9.79186 7.27713 9.9269 7.41214L11.7892 9.27439C11.9242 9.40944 12 9.59257 12 9.78352C12 9.97448 11.9242 10.1576 11.7892 10.2927L11.3477 10.7341C10.6123 11.4697 9.63624 11.9153 8.59872 11.9891C7.5612 12.0629 6.53188 11.76 5.69974 11.1359L4.82983 10.4828C3.57426 9.54109 2.45891 8.42574 1.51723 7.17017L0.864074 6.30026C0.240017 5.46812 -0.0629158 4.4388 0.0108998 3.40128C0.0847154 2.36376 0.530324 1.38768 1.26591 0.652283Z" fill="currentColor"/>
</svg>
