<svg width="24" height="24" viewBox="0 0 24 24" fill="none" xmlns="http://www.w3.org/2000/svg">
<path d="M21.3486 21.9883L19.7314 23.165L14.8867 16.5107L16.5039 15.334L21.3486 21.9883Z" fill="currentColor"/>
<path d="M4.65332 9.39648C4.65332 12.0309 7.06993 14.3467 10.2852 14.3467C13.5001 14.3464 15.917 12.0308 15.917 9.39648H17.917C17.917 13.3339 14.3951 16.3464 10.2852 16.3467C6.17501 16.3467 2.65234 13.3341 2.65234 9.39648H4.65332Z" fill="currentColor"/>
<path d="M10.2852 1.10449C14.3952 1.10461 17.917 4.11715 17.917 8.05469H15.917C15.917 5.42031 13.5003 3.10461 10.2852 3.10449C7.06995 3.10452 4.65332 5.42025 4.65332 8.05469H2.65332C2.65332 4.11709 6.17503 1.10452 10.2852 1.10449Z" fill="currentColor"/>
</svg>
