<svg width="100" height="100" viewBox="0 0 100 100" fill="none" xmlns="http://www.w3.org/2000/svg">
<path d="M50.5908 3.37012C65.0742 3.37012 78.0157 9.97295 86.5684 20.333L81.4834 25.1201C81.3402 24.9426 81.195 24.7668 81.0488 24.5918C73.773 15.8793 62.8294 10.3359 50.5908 10.3359C28.6853 10.3362 10.9268 28.0944 10.9268 50C10.9268 71.9056 28.6853 89.6638 50.5908 89.6641C72.4966 89.6641 90.2549 71.9058 90.2549 50C90.2549 45.3253 89.4461 40.8395 87.9609 36.6748C87.9177 36.5537 87.8734 36.4321 87.8291 36.3115L93.2422 31.123C93.3975 31.4734 93.5485 31.8268 93.6953 32.1816C95.9671 37.6713 97.2207 43.6893 97.2207 50C97.2207 75.753 76.3438 96.6299 50.5908 96.6299C24.8381 96.6296 3.96094 75.7528 3.96094 50C3.96094 24.2472 24.8381 3.37042 50.5908 3.37012ZM92.3389 28.6943L43.5283 77.5078L38.2715 72.251L43.5254 66.9971L92.3389 18.1885V28.6943ZM40.2129 63.6836L34.959 68.9375L17.668 51.6455V41.1396L40.2129 63.6836Z" fill="currentColor"/>
</svg>
