<svg width="16" height="17" viewBox="0 0 16 17" fill="none" xmlns="http://www.w3.org/2000/svg">
<path d="M8 0.5C3.584 0.5 0 4.084 0 8.5C0 12.916 3.584 16.5 8 16.5C12.416 16.5 16 12.916 16 8.5C16 4.084 12.416 0.5 8 0.5ZM11.712 5.94C11.592 7.204 11.072 10.276 10.808 11.692C10.696 12.292 10.472 12.492 10.264 12.516C9.8 12.556 9.448 12.212 9 11.916C8.296 11.452 7.896 11.164 7.216 10.716C6.424 10.196 6.936 9.908 7.392 9.444C7.512 9.324 9.56 7.46 9.6 7.292C9.60556 7.26655 9.60482 7.24014 9.59785 7.21504C9.59088 7.18995 9.57788 7.16693 9.56 7.148C9.512 7.108 9.448 7.124 9.392 7.132C9.32 7.148 8.2 7.892 6.016 9.364C5.696 9.58 5.408 9.692 5.152 9.684C4.864 9.676 4.32 9.524 3.912 9.388C3.408 9.228 3.016 9.14 3.048 8.86C3.064 8.716 3.264 8.572 3.64 8.42C5.976 7.404 7.528 6.732 8.304 6.412C10.528 5.484 10.984 5.324 11.288 5.324C11.352 5.324 11.504 5.34 11.6 5.42C11.68 5.484 11.704 5.572 11.712 5.636C11.704 5.684 11.72 5.828 11.712 5.94Z" fill="currentColor"/>
</svg>
