<svg width="16" height="17" viewBox="0 0 16 17" fill="none" xmlns="http://www.w3.org/2000/svg">
<path d="M8.00001 0.5C12.4184 0.5 16 4.0816 16 8.49999C16 12.9184 12.4184 16.5 8.00001 16.5C6.58621 16.5024 5.19727 16.1283 3.97601 15.416L0.00321236 16.5L1.08481 12.5256C0.371979 11.3039 -0.0024653 9.91441 1.22149e-05 8.49999C1.22149e-05 4.0816 3.58161 0.5 8.00001 0.5ZM5.27361 4.74L5.11361 4.7464C5.01016 4.75352 4.90909 4.7807 4.81601 4.8264C4.72927 4.87561 4.65006 4.93703 4.58081 5.0088C4.48481 5.0992 4.43041 5.1776 4.37201 5.2536C4.07611 5.63832 3.91679 6.11065 3.91921 6.596C3.92081 6.988 4.02321 7.3696 4.18321 7.72639C4.51041 8.44799 5.04881 9.21199 5.75921 9.91999C5.93041 10.0904 6.09841 10.2616 6.27921 10.4208C7.16195 11.1979 8.21383 11.7584 9.35121 12.0576L9.80561 12.1272C9.95361 12.1352 10.1016 12.124 10.2504 12.1168C10.4834 12.1045 10.7108 12.0414 10.9168 11.932C11.0215 11.8779 11.1237 11.8191 11.2232 11.756C11.2232 11.756 11.2571 11.7331 11.3232 11.684C11.4312 11.604 11.4976 11.5472 11.5872 11.4536C11.6544 11.3843 11.7104 11.3037 11.7552 11.212C11.8176 11.0816 11.88 10.8328 11.9056 10.6256C11.9248 10.4672 11.9192 10.3808 11.9168 10.3272C11.9136 10.2416 11.8424 10.1528 11.7648 10.1152L11.2992 9.90639C11.2992 9.90639 10.6032 9.60319 10.1776 9.40959C10.1331 9.3902 10.0853 9.37908 10.0368 9.37679C9.98206 9.37107 9.92673 9.37718 9.87456 9.3947C9.82238 9.41223 9.77458 9.44077 9.73441 9.47839C9.7304 9.47679 9.67681 9.52239 9.09841 10.2232C9.06521 10.2678 9.01948 10.3015 8.96705 10.32C8.91462 10.3386 8.85786 10.3411 8.80401 10.3272C8.75187 10.3133 8.7008 10.2957 8.65121 10.2744C8.55201 10.2328 8.51761 10.2168 8.44961 10.188C7.99031 9.98792 7.56516 9.71718 7.18961 9.38559C7.08881 9.29759 6.99521 9.20159 6.89921 9.10879C6.5845 8.80736 6.31021 8.46638 6.08321 8.09439L6.03601 8.01839C6.00262 7.96703 5.97524 7.912 5.95441 7.85439C5.92401 7.73679 6.00321 7.6424 6.00321 7.6424C6.00321 7.6424 6.19761 7.42959 6.28801 7.31439C6.37601 7.20239 6.45041 7.0936 6.49841 7.016C6.59281 6.864 6.62241 6.708 6.57281 6.5872C6.34881 6.04 6.11734 5.49573 5.87841 4.9544C5.83121 4.8472 5.69121 4.7704 5.56401 4.7552C5.52081 4.74986 5.47761 4.7456 5.43441 4.7424C5.32699 4.73624 5.21928 4.7373 5.11201 4.7456L5.27361 4.74Z" fill="currentColor"/>
</svg>
