<svg width="200" height="40" viewBox="0 0 200 40" fill="none" xmlns="http://www.w3.org/2000/svg">
<path d="M53.9741 13.8594C54.2659 13.8594 54.422 13.9951 54.422 14.2869V16.1902C54.422 16.482 54.2659 16.6177 53.9741 16.6177H47.8603V27.0201C47.8603 27.3119 47.7449 27.4476 47.4531 27.4476H45.336C45.0646 27.4476 44.9085 27.3119 44.9085 27.0201V16.6177H38.7947C38.5233 16.6177 38.3672 16.482 38.3672 16.1902V14.2869C38.3672 13.9951 38.5233 13.8594 38.7947 13.8594H53.9707H53.9741Z" fill="#2B2B2B"/>
<path d="M62.2442 13.8594C63.2519 13.8594 63.8355 14.1511 64.4767 15.3352L70.9027 26.9997C71.0384 27.2711 70.9807 27.4476 70.6686 27.4476H68.202C67.9509 27.4476 67.8322 27.3899 67.7542 27.2135L66.4717 24.8453H57.1754L55.9133 27.2135C55.8149 27.3865 55.7199 27.4476 55.4654 27.4476H52.9242C52.612 27.4476 52.5544 27.2745 52.6901 26.9997L59.055 15.3352C59.6759 14.1511 60.2764 13.8594 61.0941 13.8594H62.2408H62.2442ZM65.0976 22.321L62.0882 16.75C62.0305 16.6517 61.9525 16.6143 61.8541 16.6143H61.7387C61.6403 16.6143 61.5826 16.655 61.525 16.75L58.5359 22.321H65.0976Z" fill="#2B2B2B"/>
<path d="M75.0941 13.8594C75.3858 13.8594 75.5216 13.9951 75.5216 14.2869V19.3523H77.1501C78.3715 19.3523 78.7413 19.315 79.3045 18.5754L82.6431 14.1104C82.7991 13.917 82.8772 13.8594 83.2063 13.8594H85.6118C85.9239 13.8594 85.9985 14.1308 85.8628 14.3242L82.0968 19.1963C81.649 19.7595 81.2995 20.187 80.9127 20.4957C81.4556 20.8248 81.9204 21.2727 82.4259 21.8935L86.3853 26.9387C86.521 27.0947 86.4634 27.4442 86.1343 27.4442H83.6507C83.3589 27.4442 83.2639 27.3865 83.1079 27.1931L79.5352 22.5925C79.0501 21.9343 78.6429 21.7986 77.3604 21.7986H75.5182V27.0201C75.5182 27.3119 75.3824 27.4476 75.0907 27.4476H72.9939C72.7021 27.4476 72.5664 27.3119 72.5664 27.0201V14.2869C72.5664 13.9951 72.7021 13.8594 72.9939 13.8594H75.0907H75.0941Z" fill="#2B2B2B"/>
<path d="M102.794 13.8594C103.086 13.8594 103.242 13.9951 103.242 14.2869V16.1902C103.242 16.482 103.086 16.6177 102.794 16.6177H96.6806V27.0201C96.6806 27.3119 96.5652 27.4476 96.2734 27.4476H94.1563C93.8849 27.4476 93.7288 27.3119 93.7288 27.0201V16.6177H87.615C87.3436 16.6177 87.1875 16.482 87.1875 16.1902V14.2869C87.1875 13.9951 87.3436 13.8594 87.615 13.8594H102.791H102.794Z" fill="#2B2B2B"/>
<path d="M107.509 13.8563C107.8 13.8563 107.936 13.992 107.936 14.2838V24.4147C107.936 24.5504 107.994 24.6081 108.109 24.6081H108.282C108.381 24.6081 108.476 24.5674 108.533 24.4724L114.26 14.9827C114.803 14.0124 115.193 13.8359 116.513 13.8359H118.26C119.482 13.8359 119.987 14.3211 119.987 15.8547V26.9763C119.987 27.2681 119.831 27.4241 119.56 27.4241H117.463C117.171 27.4241 117.036 27.2681 117.036 26.9763V16.8657C117.036 16.73 116.998 16.6723 116.88 16.6723H116.707C116.591 16.6723 116.493 16.7096 116.435 16.808L110.691 26.2977C110.148 27.2884 109.758 27.4445 108.459 27.4445H106.732C105.49 27.4445 104.984 26.9593 104.984 25.4258V14.2838C104.984 13.992 105.12 13.8563 105.412 13.8563H107.509Z" fill="#2B2B2B"/>
<path d="M135.324 13.855C136.606 13.855 137.109 14.3605 137.109 15.5039V27.0123C137.109 27.304 136.973 27.4398 136.681 27.4398H134.584C134.293 27.4398 134.136 27.304 134.136 27.0123V17.0374C134.136 16.7456 134.021 16.6099 133.75 16.6099H129.268C128.861 16.6099 128.745 16.844 128.684 17.2308C128.392 20.0434 127.948 23.1886 127.327 25.0343C126.784 26.6459 125.872 27.4398 124.145 27.4398H122.146C121.875 27.4398 121.719 27.2837 121.719 26.9919V25.1089C121.719 24.8171 121.875 24.6814 122.146 24.6814H123.642C124.263 24.6814 124.789 24.2743 125.135 23.1479C125.563 21.8077 125.855 19.9247 126.357 15.5412C126.472 14.4148 126.9 13.8516 128.046 13.8516H135.324V13.855Z" fill="#2B2B2B"/>
<path d="M141.964 24.7188C142.255 24.7188 142.391 24.8545 142.391 25.1462V27.0089C142.391 27.3007 142.255 27.4364 141.964 27.4364H140.06C139.769 27.4364 139.633 27.3007 139.633 27.0089V25.1462C139.633 24.8545 139.769 24.7188 140.06 24.7188H141.964Z" fill="#2B2B2B"/>
<path d="M158.112 13.8594C159.412 13.8594 159.917 14.3819 159.917 15.5083V27.0167C159.917 27.3085 159.761 27.4442 159.47 27.4442H157.373C157.081 27.4442 156.945 27.3085 156.945 27.0167V17.0418C156.945 16.7501 156.81 16.6143 156.538 16.6143H148.249C147.978 16.6143 147.863 16.7501 147.863 17.0418V27.0167C147.863 27.3085 147.707 27.4442 147.415 27.4442H145.318C145.026 27.4442 144.891 27.3085 144.891 27.0167V15.5083C144.891 14.3819 145.376 13.8594 146.675 13.8594H158.106H158.112Z" fill="#2B2B2B"/>
<path d="M173.486 13.8594C176.455 13.8594 177.659 15.2368 177.659 17.8391V19.2947C177.659 21.9139 176.455 23.3525 173.486 23.3525H165.452V27.0201C165.452 27.3119 165.316 27.4476 165.024 27.4476H162.927C162.636 27.4476 162.5 27.3119 162.5 27.0201V14.4429C162.5 14.0562 162.693 13.8594 163.084 13.8594H173.486ZM172.882 20.6721C174.202 20.6721 174.687 20.1496 174.687 19.0029V18.2666C174.687 17.1029 174.202 16.577 172.882 16.577H165.699C165.526 16.577 165.448 16.655 165.448 16.8111V20.6721H172.882Z" fill="#2B2B2B"/>
<path d="M190.859 13.8594C194.798 13.8594 196.294 15.2572 196.294 18.9825V22.321C196.294 26.0464 194.798 27.4442 190.859 27.4442H184.881C180.942 27.4442 179.445 26.026 179.445 22.321V18.9825C179.445 15.2742 180.942 13.8594 184.881 13.8594H190.859ZM182.397 22.1073C182.397 24.1464 182.96 24.7096 184.979 24.7096H190.743C192.762 24.7096 193.325 24.1464 193.325 22.1073V19.1963C193.325 17.1572 192.762 16.594 190.743 16.594H184.979C182.96 16.594 182.397 17.1572 182.397 19.1963V22.1073Z" fill="#2B2B2B"/>
<path d="M20.0777 13.8506C22.0039 13.8506 23.5655 12.2891 23.5655 10.3628C23.5655 8.43655 22.0039 6.875 20.0777 6.875C18.1514 6.875 16.5898 8.43655 16.5898 10.3628C16.5898 12.2891 18.1514 13.8506 20.0777 13.8506Z" fill="#F8B233"/>
<path d="M8.06593 8.07266C9.32806 8.07266 10.3561 9.10068 10.3561 10.3628C10.3561 11.6249 9.32806 12.653 8.06593 12.653C6.80381 12.653 5.77579 11.6249 5.77579 10.3628C5.77579 9.10068 6.80381 8.07266 8.06593 8.07266ZM8.06593 6.875C6.14221 6.875 4.57812 8.43569 4.57812 10.3628C4.57812 12.2899 6.13882 13.8506 8.06593 13.8506C9.99305 13.8506 11.5537 12.2899 11.5537 10.3628C11.5537 8.43569 9.99305 6.875 8.06593 6.875Z" fill="#2B2B2B"/>
<path d="M20.0777 28.6352C21.3398 28.6352 22.3678 29.6632 22.3678 30.9253C22.3678 32.1874 21.3398 33.2154 20.0777 33.2154C18.8155 33.2154 17.7875 32.1874 17.7875 30.9253C17.7875 29.6632 18.8155 28.6352 20.0777 28.6352ZM20.0777 27.4375C18.1539 27.4375 16.5898 28.9982 16.5898 30.9253C16.5898 32.8524 18.1505 34.4131 20.0777 34.4131C22.0048 34.4131 23.5655 32.8524 23.5655 30.9253C23.5655 28.9982 22.0048 27.4375 20.0777 27.4375Z" fill="#2B2B2B"/>
<path d="M8.06593 24.1319C9.9922 24.1319 11.5537 22.5703 11.5537 20.6441C11.5537 18.7178 9.9922 17.1562 8.06593 17.1562C6.13967 17.1562 4.57812 18.7178 4.57812 20.6441C4.57812 22.5703 6.13967 24.1319 8.06593 24.1319Z" fill="#F8B233"/>
<path d="M20.0777 24.1319C22.0039 24.1319 23.5655 22.5703 23.5655 20.6441C23.5655 18.7178 22.0039 17.1562 20.0777 17.1562C18.1514 17.1562 16.5898 18.7178 16.5898 20.6441C16.5898 22.5703 18.1514 24.1319 20.0777 24.1319Z" fill="#F8B233"/>
<path d="M8.06593 34.4131C9.9922 34.4131 11.5537 32.8516 11.5537 30.9253C11.5537 28.999 9.9922 27.4375 8.06593 27.4375C6.13967 27.4375 4.57812 28.999 4.57812 30.9253C4.57812 32.8516 6.13967 34.4131 8.06593 34.4131Z" fill="#F8B233"/>
</svg>
