<svg width="393" height="78" viewBox="0 0 393 78" fill="none" xmlns="http://www.w3.org/2000/svg">
<path d="M104.496 25.0677C105.069 25.0677 105.376 25.3324 105.376 25.9013V29.6129C105.376 30.1819 105.069 30.4465 104.496 30.4465H92.482V50.7311C92.482 51.3001 92.2554 51.5647 91.682 51.5647H87.5219C86.9885 51.5647 86.6819 51.3001 86.6819 50.7311V30.4465H74.6682C74.1348 30.4465 73.8281 30.1819 73.8281 29.6129V25.9013C73.8281 25.3324 74.1348 25.0677 74.6682 25.0677H104.489H104.496Z" fill="white"/>
<path d="M120.749 25.0677C122.729 25.0677 123.876 25.6367 125.136 27.9457L137.763 50.6914C138.03 51.2207 137.917 51.5647 137.303 51.5647H132.456C131.963 51.5647 131.73 51.4523 131.576 51.1082L129.056 46.4903H110.789L108.309 51.1082C108.116 51.4457 107.929 51.5647 107.429 51.5647H102.435C101.822 51.5647 101.709 51.2273 101.975 50.6914L114.482 27.9457C115.703 25.6367 116.883 25.0677 118.489 25.0677H120.743H120.749ZM126.356 41.568L120.443 30.7046C120.329 30.5127 120.176 30.4399 119.983 30.4399H119.756C119.563 30.4399 119.449 30.5193 119.336 30.7046L113.462 41.568H126.356Z" fill="white"/>
<path d="M145.998 25.0677C146.571 25.0677 146.838 25.3324 146.838 25.9013V35.779H150.038C152.438 35.779 153.165 35.7062 154.272 34.264L160.832 25.5573C161.139 25.1802 161.292 25.0677 161.939 25.0677H166.665C167.279 25.0677 167.425 25.597 167.159 25.9741L159.759 35.4747C158.878 36.5729 158.192 37.4066 157.432 38.0086C158.498 38.6504 159.412 39.5237 160.405 40.7344L168.185 50.5723C168.452 50.8767 168.339 51.5581 167.692 51.5581H162.812C162.239 51.5581 162.052 51.4457 161.745 51.0685L154.725 42.0973C153.772 40.8138 152.972 40.5491 150.452 40.5491H146.831V50.7311C146.831 51.3001 146.565 51.5647 145.991 51.5647H141.871C141.298 51.5647 141.031 51.3001 141.031 50.7311V25.9013C141.031 25.3324 141.298 25.0677 141.871 25.0677H145.991H145.998Z" fill="white"/>
<path d="M200.425 25.0762C200.999 25.0762 201.305 25.3408 201.305 25.9098V29.6213C201.305 30.1903 200.999 30.455 200.425 30.455H188.412V50.7395C188.412 51.3085 188.185 51.5732 187.612 51.5732H183.452C182.918 51.5732 182.612 51.3085 182.612 50.7395V30.455H170.598C170.064 30.455 169.758 30.1903 169.758 29.6213V25.9098C169.758 25.3408 170.064 25.0762 170.598 25.0762H200.419H200.425Z" fill="white"/>
<path d="M209.695 25.0735C210.268 25.0735 210.535 25.3381 210.535 25.9071V45.6624C210.535 45.9271 210.648 46.0396 210.875 46.0396H211.215C211.408 46.0396 211.595 45.9601 211.708 45.7749L222.962 27.27C224.028 25.3778 224.795 25.0338 227.388 25.0338H230.822C233.222 25.0338 234.215 25.9799 234.215 28.9703V50.6575C234.215 51.2265 233.909 51.5308 233.375 51.5308H229.255C228.682 51.5308 228.415 51.2265 228.415 50.6575V30.9419C228.415 30.6772 228.342 30.5648 228.108 30.5648H227.768C227.542 30.5648 227.348 30.6375 227.235 30.8294L215.948 49.3343C214.881 51.2662 214.115 51.5705 211.561 51.5705H208.168C205.728 51.5705 204.734 50.6244 204.734 47.634V25.9071C204.734 25.3381 205.001 25.0735 205.574 25.0735H209.695Z" fill="white"/>
<path d="M264.347 25.0661C266.868 25.0661 267.854 26.0518 267.854 28.2814V50.7228C267.854 51.2918 267.588 51.5564 267.014 51.5564H262.894C262.321 51.5564 262.014 51.2918 262.014 50.7228V31.2719C262.014 30.7029 261.787 30.4382 261.254 30.4382H252.447C251.647 30.4382 251.42 30.8947 251.3 31.649C250.727 37.1336 249.854 43.2666 248.634 46.8657C247.567 50.0083 245.774 51.5564 242.38 51.5564H238.453C237.92 51.5564 237.613 51.2521 237.613 50.6831V47.0113C237.613 46.4423 237.92 46.1777 238.453 46.1777H241.393C242.613 46.1777 243.647 45.3837 244.327 43.1872C245.167 40.5739 245.74 36.9021 246.727 28.3542C246.954 26.1577 247.794 25.0594 250.047 25.0594H264.347V25.0661Z" fill="white"/>
<path d="M277.397 46.2579C277.97 46.2579 278.237 46.5226 278.237 47.0916V50.7237C278.237 51.2927 277.97 51.5573 277.397 51.5573H273.656C273.083 51.5573 272.816 51.2927 272.816 50.7237V47.0916C272.816 46.5226 273.083 46.2579 273.656 46.2579H277.397Z" fill="white"/>
<path d="M309.129 25.0762C311.683 25.0762 312.676 26.095 312.676 28.2915V50.7329C312.676 51.3019 312.369 51.5665 311.796 51.5665H307.676C307.102 51.5665 306.836 51.3019 306.836 50.7329V31.282C306.836 30.713 306.569 30.4483 306.036 30.4483H289.749C289.215 30.4483 288.989 30.713 288.989 31.282V50.7329C288.989 51.3019 288.682 51.5665 288.109 51.5665H283.988C283.415 51.5665 283.148 51.3019 283.148 50.7329V28.2915C283.148 26.095 284.102 25.0762 286.655 25.0762H309.116H309.129Z" fill="white"/>
<path d="M339.337 25.0677C345.171 25.0677 347.538 27.7538 347.538 32.8283V35.6665C347.538 40.7741 345.171 43.5793 339.337 43.5793H323.55V50.7311C323.55 51.3001 323.284 51.5647 322.71 51.5647H318.59C318.017 51.5647 317.75 51.3001 317.75 50.7311V26.2057C317.75 25.4515 318.13 25.0677 318.897 25.0677H339.337ZM338.151 38.3526C340.744 38.3526 341.697 37.3338 341.697 35.0976V33.6619C341.697 31.3926 340.744 30.3671 338.151 30.3671H324.037C323.697 30.3671 323.544 30.5193 323.544 30.8236V38.3526H338.151Z" fill="white"/>
<path d="M373.47 25.0762C381.211 25.0762 384.151 27.8019 384.151 35.0663V41.5764C384.151 48.8408 381.211 51.5665 373.47 51.5665H361.723C353.983 51.5665 351.043 48.8011 351.043 41.5764V35.0663C351.043 27.835 353.983 25.0762 361.723 25.0762H373.47ZM356.843 41.1596C356.843 45.1358 357.95 46.2341 361.917 46.2341H373.244C377.21 46.2341 378.317 45.1358 378.317 41.1596V35.4831C378.317 31.5069 377.21 30.4087 373.244 30.4087H361.917C357.95 30.4087 356.843 31.5069 356.843 35.4831V41.1596Z" fill="white"/>
<path d="M37.8887 25.0485C41.6738 25.0485 44.7422 22.0035 44.7422 18.2473C44.7422 14.4911 41.6738 11.446 37.8887 11.446C34.1036 11.446 31.0352 14.4911 31.0352 18.2473C31.0352 22.0035 34.1036 25.0485 37.8887 25.0485Z" fill="#F8B233"/>
<path d="M14.2871 13.7899C16.7672 13.7899 18.7873 15.7945 18.7873 18.2557C18.7873 20.7168 16.7672 22.7215 14.2871 22.7215C11.8071 22.7215 9.787 20.7168 9.787 18.2557C9.787 15.7945 11.8071 13.7899 14.2871 13.7899ZM14.2871 11.4545C10.507 11.4545 7.43359 14.4978 7.43359 18.2557C7.43359 22.0136 10.5004 25.0569 14.2871 25.0569C18.0739 25.0569 21.1407 22.0136 21.1407 18.2557C21.1407 14.4978 18.0739 11.4545 14.2871 11.4545Z" fill="white"/>
<path d="M37.8887 53.8761C40.3688 53.8761 42.3888 55.8807 42.3888 58.3419C42.3888 60.803 40.3688 62.8076 37.8887 62.8076C35.4086 62.8076 33.3886 60.803 33.3886 58.3419C33.3886 55.8807 35.4086 53.8761 37.8887 53.8761ZM37.8887 51.5406C34.1086 51.5406 31.0352 54.584 31.0352 58.3419C31.0352 62.0997 34.1019 65.1431 37.8887 65.1431C41.6755 65.1431 44.7422 62.0997 44.7422 58.3419C44.7422 54.584 41.6755 51.5406 37.8887 51.5406Z" fill="white"/>
<path d="M14.2871 45.0873C18.0722 45.0873 21.1407 42.0423 21.1407 38.2861C21.1407 34.5299 18.0722 31.4849 14.2871 31.4849C10.502 31.4849 7.43359 34.5299 7.43359 38.2861C7.43359 42.0423 10.502 45.0873 14.2871 45.0873Z" fill="#F8B233"/>
<path d="M37.8887 45.0873C41.6738 45.0873 44.7422 42.0423 44.7422 38.2861C44.7422 34.5299 41.6738 31.4849 37.8887 31.4849C34.1036 31.4849 31.0352 34.5299 31.0352 38.2861C31.0352 42.0423 34.1036 45.0873 37.8887 45.0873Z" fill="#F8B233"/>
<path d="M14.2871 65.1431C18.0722 65.1431 21.1407 62.0981 21.1407 58.3419C21.1407 54.5856 18.0722 51.5406 14.2871 51.5406C10.502 51.5406 7.43359 54.5856 7.43359 58.3419C7.43359 62.0981 10.502 65.1431 14.2871 65.1431Z" fill="#F8B233"/>
</svg>
