<svg width="0" height="0" class="hidden">
  <symbol fill="none" xmlns="http://www.w3.org/2000/svg" viewBox="0 0 12 14" id="ic_arr_hor">
    <path d="M7.25 1.28906L1.25 7.0013L7.25 12.7111" stroke="currentColor" stroke-linecap="round" stroke-linejoin="round"></path>
  </symbol>
  <symbol fill="none" xmlns="http://www.w3.org/2000/svg" viewBox="0 0 28 24" id="ic_arr_ver">
    <path d="M25.4229 6.50003L13.9984 18.5L2.57875 6.50003" stroke="currentColor" stroke-width="2" stroke-linecap="round" stroke-linejoin="round"></path>
  </symbol>
  <symbol fill="none" xmlns="http://www.w3.org/2000/svg" viewBox="0 0 55 16" id="ic_arrow_hor">
    <path d="M51.9561 8.8775L47.0674 13.5298C46.8675 13.7199 46.5507 13.7117 46.3604 13.5123C46.1701 13.3123 46.178 12.9956 46.3779 12.8052L50.5049 8.8775H51.9561Z" fill="currentColor"></path>
    <path d="M46.3604 1.82281C46.5269 1.6481 46.7903 1.62052 46.9873 1.74371L47.0674 1.80523L52.8457 7.30621C52.9444 7.40041 53.0008 7.53206 53.001 7.66851C53.0009 7.80511 52.9446 7.93656 52.8457 8.03082L52.7012 8.16851H2.50098C2.22495 8.16851 2.00018 7.9445 2 7.66851C2.00033 7.39265 2.22504 7.16851 2.50098 7.16851H51.25L46.3779 2.52984L46.3115 2.45269C46.1791 2.26191 46.194 1.99764 46.3604 1.82281Z" fill="currentColor"></path>
  </symbol>
  <symbol fill="none" xmlns="http://www.w3.org/2000/svg" viewBox="0 0 22 22" id="ic_cart">
    <path d="M9.02104 11.4433H7.01664V9.12752H9.02104V11.4433Z" fill="currentColor"></path>
    <path d="M14.9775 11.4433H12.9731V9.12752H14.9775V11.4433Z" fill="currentColor"></path>
    <path fill-rule="evenodd" clip-rule="evenodd" d="M19 22H3V5.9281H19V22ZM5.00538 19.9575H16.9956V7.97062H5.00538V19.9575Z" fill="currentColor"></path>
    <path d="M14.9775 4.62161H12.9731V2.04252H9.02104V4.62161H7.01664V0H14.9775V4.62161Z" fill="currentColor"></path>
  </symbol>
  <symbol fill="none" xmlns="http://www.w3.org/2000/svg" viewBox="0 0 26 27" id="ic_delete">
    <circle cx="13" cy="13.5" r="13" fill="currentColor"></circle>
    <path fill-rule="evenodd" clip-rule="evenodd" d="M18.5176 9.1972C18.5865 9.13097 18.6411 9.05232 18.6784 8.96574C18.7157 8.87917 18.735 8.78637 18.735 8.69264C18.7351 8.59891 18.716 8.50609 18.6788 8.41947C18.6416 8.33286 18.587 8.25414 18.5183 8.18782C18.4495 8.12151 18.3678 8.06889 18.2779 8.03296C18.188 7.99704 18.0916 7.97852 17.9943 7.97847C17.897 7.97841 17.8006 7.99681 17.7106 8.03263C17.6207 8.06844 17.5389 8.12097 17.4701 8.1872L13.6628 11.8535L14.7104 12.8623L18.5176 9.1972ZM8.53169 8.1872L13.0002 12.4915L14.0478 13.5002L18.5176 17.8033C18.6567 17.937 18.7349 18.1185 18.735 18.3078C18.7351 18.4971 18.6572 18.6787 18.5183 18.8127C18.3793 18.9466 18.1909 19.0219 17.9943 19.022C17.7977 19.0221 17.6091 18.947 17.4701 18.8133L13.0002 14.509L11.9527 13.5002L7.48285 9.1972C7.34376 9.06327 7.26562 8.88162 7.26562 8.6922C7.26563 8.50279 7.34376 8.32114 7.48285 8.1872C7.62193 8.05327 7.81057 7.97803 8.00727 7.97803C8.20397 7.97803 8.39261 8.05327 8.53169 8.1872ZM11.2599 14.1672L7.48285 17.8033C7.41398 17.8696 7.35935 17.9483 7.32208 18.035C7.28481 18.1216 7.26562 18.2145 7.26562 18.3083C7.26562 18.4021 7.28481 18.4949 7.32208 18.5816C7.35935 18.6682 7.41398 18.747 7.48285 18.8133C7.62193 18.9472 7.81057 19.0225 8.00727 19.0225C8.10466 19.0225 8.2011 19.004 8.29108 18.9681C8.38107 18.9322 8.46282 18.8796 8.53169 18.8133L12.3077 15.1761L11.2599 14.1672Z" fill="white"></path>
  </symbol>
  <symbol fill="none" xmlns="http://www.w3.org/2000/svg" viewBox="0 0 12 12" id="ic_email">
    <path d="M10.8 1.19531H1.2C0.54 1.19531 0.00599999 1.73531 0.00599999 2.39531L0 9.59531C0 10.2553 0.54 10.7953 1.2 10.7953H10.8C11.46 10.7953 12 10.2553 12 9.59531V2.39531C12 1.73531 11.46 1.19531 10.8 1.19531ZM10.8 3.59531L6 6.59531L1.2 3.59531V2.39531L6 5.39531L10.8 2.39531V3.59531Z" fill="currentColor"></path>
  </symbol>
  <symbol fill="none" xmlns="http://www.w3.org/2000/svg" viewBox="0 0 16 16" id="ic_location">
    <path fill-rule="evenodd" clip-rule="evenodd" d="M7.33216 16C7.65992 16 8.16235 15.9111 8.54058 15.7395C10.6299 14.792 13.332 10.3698 13.332 6.80015C13.332 3.20247 10.9814 0 7.33216 0C3.68296 0 1.33203 3.20247 1.33203 6.80015C1.33203 10.3698 4.03417 14.792 6.12348 15.7395C6.50171 15.9111 7.0044 16 7.33216 16ZM8.50028 7.53154C8.19048 7.8316 7.77029 8.00018 7.33216 8.00018C6.89403 8.00018 6.47358 7.8316 6.16378 7.53154C5.85397 7.23147 5.67992 6.8245 5.67992 6.40014C5.67992 5.97579 5.85397 5.56881 6.16378 5.26875C6.47358 4.96868 6.89403 4.80011 7.33216 4.80011C7.77029 4.80011 8.19048 4.96868 8.50028 5.26875C8.81009 5.56881 8.98414 5.97579 8.98414 6.40014C8.98414 6.8245 8.81009 7.23147 8.50028 7.53154Z" fill="currentColor"></path>
  </symbol>
  <symbol fill="none" xmlns="http://www.w3.org/2000/svg" viewBox="0 0 30 8" id="ic_menu">
    <line y1="1" x2="30" y2="1" stroke="currentColor" stroke-width="2"></line>
    <line y1="7" x2="30" y2="7" stroke="currentColor" stroke-width="2"></line>
  </symbol>
  <symbol fill="none" xmlns="http://www.w3.org/2000/svg" viewBox="0 0 12 12" id="ic_phone">
    <path d="M1.26591 0.652283L1.70735 0.210844C1.84239 0.0758406 2.02552 0 2.21648 0C2.40743 0 2.59056 0.0758406 2.72561 0.210844L4.58786 2.0731C4.72287 2.20814 4.79871 2.39128 4.79871 2.58223C4.79871 2.77318 4.72287 2.95632 4.58786 3.09136L3.29667 4.38255C3.19173 4.48744 3.12251 4.62273 3.09885 4.7692C3.07519 4.91567 3.0983 5.06587 3.16489 5.19846C3.95209 6.77194 5.22806 8.04791 6.80154 8.83511C6.9342 8.90161 7.08445 8.9246 7.23092 8.90081C7.3774 8.87703 7.51265 8.80767 7.61745 8.70261L8.90864 7.41214C9.04368 7.27713 9.22682 7.20129 9.41777 7.20129C9.60872 7.20129 9.79186 7.27713 9.9269 7.41214L11.7892 9.27439C11.9242 9.40944 12 9.59257 12 9.78352C12 9.97448 11.9242 10.1576 11.7892 10.2927L11.3477 10.7341C10.6123 11.4697 9.63624 11.9153 8.59872 11.9891C7.5612 12.0629 6.53188 11.76 5.69974 11.1359L4.82983 10.4828C3.57426 9.54109 2.45891 8.42574 1.51723 7.17017L0.864074 6.30026C0.240017 5.46812 -0.0629158 4.4388 0.0108998 3.40128C0.0847154 2.36376 0.530324 1.38768 1.26591 0.652283Z" fill="currentColor"></path>
  </symbol>
  <symbol fill="none" xmlns="http://www.w3.org/2000/svg" viewBox="0 0 24 24" id="ic_search">
    <path d="M21.3486 21.9883L19.7314 23.165L14.8867 16.5107L16.5039 15.334L21.3486 21.9883Z" fill="currentColor"></path>
    <path d="M4.65332 9.39648C4.65332 12.0309 7.06993 14.3467 10.2852 14.3467C13.5001 14.3464 15.917 12.0308 15.917 9.39648H17.917C17.917 13.3339 14.3951 16.3464 10.2852 16.3467C6.17501 16.3467 2.65234 13.3341 2.65234 9.39648H4.65332Z" fill="currentColor"></path>
    <path d="M10.2852 1.10449C14.3952 1.10461 17.917 4.11715 17.917 8.05469H15.917C15.917 5.42031 13.5003 3.10461 10.2852 3.10449C7.06995 3.10452 4.65332 5.42025 4.65332 8.05469H2.65332C2.65332 4.11709 6.17503 1.10452 10.2852 1.10449Z" fill="currentColor"></path>
  </symbol>
  <symbol fill="none" xmlns="http://www.w3.org/2000/svg" viewBox="0 0 100 100" id="ic_success">
    <path d="M50.5908 3.37012C65.0742 3.37012 78.0157 9.97295 86.5684 20.333L81.4834 25.1201C81.3402 24.9426 81.195 24.7668 81.0488 24.5918C73.773 15.8793 62.8294 10.3359 50.5908 10.3359C28.6853 10.3362 10.9268 28.0944 10.9268 50C10.9268 71.9056 28.6853 89.6638 50.5908 89.6641C72.4966 89.6641 90.2549 71.9058 90.2549 50C90.2549 45.3253 89.4461 40.8395 87.9609 36.6748C87.9177 36.5537 87.8734 36.4321 87.8291 36.3115L93.2422 31.123C93.3975 31.4734 93.5485 31.8268 93.6953 32.1816C95.9671 37.6713 97.2207 43.6893 97.2207 50C97.2207 75.753 76.3438 96.6299 50.5908 96.6299C24.8381 96.6296 3.96094 75.7528 3.96094 50C3.96094 24.2472 24.8381 3.37042 50.5908 3.37012ZM92.3389 28.6943L43.5283 77.5078L38.2715 72.251L43.5254 66.9971L92.3389 18.1885V28.6943ZM40.2129 63.6836L34.959 68.9375L17.668 51.6455V41.1396L40.2129 63.6836Z" fill="currentColor"></path>
  </symbol>
  <symbol fill="none" xmlns="http://www.w3.org/2000/svg" viewBox="0 0 16 17" id="ic_tg">
    <path d="M8 0.5C3.584 0.5 0 4.084 0 8.5C0 12.916 3.584 16.5 8 16.5C12.416 16.5 16 12.916 16 8.5C16 4.084 12.416 0.5 8 0.5ZM11.712 5.94C11.592 7.204 11.072 10.276 10.808 11.692C10.696 12.292 10.472 12.492 10.264 12.516C9.8 12.556 9.448 12.212 9 11.916C8.296 11.452 7.896 11.164 7.216 10.716C6.424 10.196 6.936 9.908 7.392 9.444C7.512 9.324 9.56 7.46 9.6 7.292C9.60556 7.26655 9.60482 7.24014 9.59785 7.21504C9.59088 7.18995 9.57788 7.16693 9.56 7.148C9.512 7.108 9.448 7.124 9.392 7.132C9.32 7.148 8.2 7.892 6.016 9.364C5.696 9.58 5.408 9.692 5.152 9.684C4.864 9.676 4.32 9.524 3.912 9.388C3.408 9.228 3.016 9.14 3.048 8.86C3.064 8.716 3.264 8.572 3.64 8.42C5.976 7.404 7.528 6.732 8.304 6.412C10.528 5.484 10.984 5.324 11.288 5.324C11.352 5.324 11.504 5.34 11.6 5.42C11.68 5.484 11.704 5.572 11.712 5.636C11.704 5.684 11.72 5.828 11.712 5.94Z" fill="currentColor"></path>
  </symbol>
  <symbol fill="none" xmlns="http://www.w3.org/2000/svg" viewBox="0 0 16 17" id="ic_whatsapp">
    <path d="M8.00001 0.5C12.4184 0.5 16 4.0816 16 8.49999C16 12.9184 12.4184 16.5 8.00001 16.5C6.58621 16.5024 5.19727 16.1283 3.97601 15.416L0.00321236 16.5L1.08481 12.5256C0.371979 11.3039 -0.0024653 9.91441 1.22149e-05 8.49999C1.22149e-05 4.0816 3.58161 0.5 8.00001 0.5ZM5.27361 4.74L5.11361 4.7464C5.01016 4.75352 4.90909 4.7807 4.81601 4.8264C4.72927 4.87561 4.65006 4.93703 4.58081 5.0088C4.48481 5.0992 4.43041 5.1776 4.37201 5.2536C4.07611 5.63832 3.91679 6.11065 3.91921 6.596C3.92081 6.988 4.02321 7.3696 4.18321 7.72639C4.51041 8.44799 5.04881 9.21199 5.75921 9.91999C5.93041 10.0904 6.09841 10.2616 6.27921 10.4208C7.16195 11.1979 8.21383 11.7584 9.35121 12.0576L9.80561 12.1272C9.95361 12.1352 10.1016 12.124 10.2504 12.1168C10.4834 12.1045 10.7108 12.0414 10.9168 11.932C11.0215 11.8779 11.1237 11.8191 11.2232 11.756C11.2232 11.756 11.2571 11.7331 11.3232 11.684C11.4312 11.604 11.4976 11.5472 11.5872 11.4536C11.6544 11.3843 11.7104 11.3037 11.7552 11.212C11.8176 11.0816 11.88 10.8328 11.9056 10.6256C11.9248 10.4672 11.9192 10.3808 11.9168 10.3272C11.9136 10.2416 11.8424 10.1528 11.7648 10.1152L11.2992 9.90639C11.2992 9.90639 10.6032 9.60319 10.1776 9.40959C10.1331 9.3902 10.0853 9.37908 10.0368 9.37679C9.98206 9.37107 9.92673 9.37718 9.87456 9.3947C9.82238 9.41223 9.77458 9.44077 9.73441 9.47839C9.7304 9.47679 9.67681 9.52239 9.09841 10.2232C9.06521 10.2678 9.01948 10.3015 8.96705 10.32C8.91462 10.3386 8.85786 10.3411 8.80401 10.3272C8.75187 10.3133 8.7008 10.2957 8.65121 10.2744C8.55201 10.2328 8.51761 10.2168 8.44961 10.188C7.99031 9.98792 7.56516 9.71718 7.18961 9.38559C7.08881 9.29759 6.99521 9.20159 6.89921 9.10879C6.5845 8.80736 6.31021 8.46638 6.08321 8.09439L6.03601 8.01839C6.00262 7.96703 5.97524 7.912 5.95441 7.85439C5.92401 7.73679 6.00321 7.6424 6.00321 7.6424C6.00321 7.6424 6.19761 7.42959 6.28801 7.31439C6.37601 7.20239 6.45041 7.0936 6.49841 7.016C6.59281 6.864 6.62241 6.708 6.57281 6.5872C6.34881 6.04 6.11734 5.49573 5.87841 4.9544C5.83121 4.8472 5.69121 4.7704 5.56401 4.7552C5.52081 4.74986 5.47761 4.7456 5.43441 4.7424C5.32699 4.73624 5.21928 4.7373 5.11201 4.7456L5.27361 4.74Z" fill="currentColor"></path>
  </symbol>
</svg>